<svg width="23" height="22" viewBox="0 0 23 22" fill="none" xmlns="http://www.w3.org/2000/svg">
<path d="M1.05005 1.05005H3.05005L5.71005 13.47C5.80763 13.9249 6.06072 14.3315 6.42576 14.6199C6.7908 14.9083 7.24495 15.0604 7.71005 15.05H17.49C17.9452 15.0493 18.3865 14.8933 18.7411 14.6079C19.0956 14.3224 19.3422 13.9246 19.4401 13.48L21.09 6.05005H4.12005M8 20C8 20.5523 7.55228 21 7 21C6.44772 21 6 20.5523 6 20C6 19.4477 6.44772 19 7 19C7.55228 19 8 19.4477 8 20ZM19 20C19 20.5523 18.5523 21 18 21C17.4477 21 17 20.5523 17 20C17 19.4477 17.4477 19 18 19C18.5523 19 19 19.4477 19 20Z" stroke="#60646C" stroke-width="2" stroke-linecap="round" stroke-linejoin="round"/>
</svg>
